<?xml version="1.0" standalone="no"?>
<!DOCTYPE svg PUBLIC "-//W3C//DTD SVG 20010904//EN"
 "http://www.w3.org/TR/2001/REC-SVG-20010904/DTD/svg10.dtd">
<svg version="1.0" xmlns="http://www.w3.org/2000/svg"
 width="640.000000pt" height="1280.000000pt" viewBox="0 0 640.000000 1280.000000"
 preserveAspectRatio="xMidYMid meet">
<g transform="translate(0.000000,1280.000000) scale(0.100000,-0.100000)"
fill="#000000" stroke="none">
<path d="M1579 12758 c-218 -77 -408 -287 -550 -610 -168 -381 -255 -868 -261
-1453 -3 -268 4 -316 69 -520 58 -182 177 -433 316 -665 104 -175 349 -526
508 -726 27 -34 49 -68 49 -76 0 -7 -125 -263 -278 -568 -298 -593 -354 -713
-467 -995 -153 -382 -235 -684 -287 -1065 -17 -128 -17 -642 0 -770 44 -317
115 -623 184 -790 240 -583 703 -1060 1282 -1321 212 -96 468 -170 711 -205
167 -25 515 -25 680 0 309 45 646 154 1013 326 80 38 116 50 123 43 6 -6 35
-62 64 -124 538 -1161 625 -1353 653 -1449 65 -217 87 -383 79 -589 -16 -393
-166 -643 -508 -846 -407 -241 -532 -269 -555 -123 -5 30 1 42 63 118 180 220
258 388 270 577 19 310 -223 641 -552 755 -438 151 -892 -115 -991 -580 -18
-86 -18 -240 0 -334 36 -186 112 -314 266 -446 180 -154 425 -261 678 -297 92
-14 115 -13 210 0 267 39 466 106 701 238 298 168 512 484 576 852 43 250 1
632 -98 873 -13 31 -188 367 -390 745 -202 378 -367 691 -367 696 0 5 25 28
56 51 153 115 502 485 599 634 174 268 282 642 305 1056 26 480 -67 848 -307
1210 -107 160 -313 366 -473 473 -490 325 -1076 401 -1624 210 -129 -45 -227
-90 -334 -154 -70 -43 -86 -49 -97 -37 -12 12 -600 1083 -612 1114 -2 7 34
113 80 236 395 1039 584 1945 539 2585 -26 375 -168 913 -327 1238 -186 381
-415 602 -725 700 -122 38 -190 41 -271 13z m339 -534 c195 -87 398 -458 508
-929 26 -113 28 -132 27 -340 -2 -499 -98 -824 -473 -1605 -67 -140 -140 -292
-161 -337 -21 -46 -44 -83 -51 -83 -29 0 -188 243 -287 440 -192 378 -238 665
-196 1197 45 568 129 941 289 1294 67 146 179 352 208 381 21 21 59 16 136
-18z m597 -4890 c149 -272 274 -506 279 -519 9 -23 0 -34 -112 -141 -140 -133
-228 -238 -312 -375 -287 -463 -349 -1025 -169 -1536 60 -169 127 -279 247
-405 165 -172 371 -288 640 -360 106 -28 132 -31 277 -32 141 -1 165 1 200 19
40 20 58 52 33 59 -7 2 -63 9 -123 15 -369 37 -566 193 -719 571 -192 470 -76
994 297 1346 89 85 132 113 146 98 19 -21 1361 -2495 1361 -2508 0 -15 -62
-61 -177 -130 -146 -87 -559 -195 -867 -225 -940 -93 -1650 390 -2050 1395
-76 191 -96 283 -103 479 -13 375 96 845 357 1531 87 229 480 1194 492 1211 5
6 15 10 21 7 7 -3 134 -227 282 -500z m1562 -1040 c399 -59 743 -314 913 -676
69 -149 153 -420 197 -643 22 -115 25 -425 4 -530 -51 -257 -175 -478 -384
-686 -104 -104 -140 -130 -157 -112 -10 10 -1346 2461 -1355 2485 -8 21 19 39
129 84 211 86 427 112 653 78z"/>
</g>
</svg>
